# xmcd CD database file
#
# Track frame offsets:
#	150
#	20497
#	54929
#	89054
#	113424
#	135041
#	194377
#	244898
#	272482
#
# Disc length: 4196 seconds
#
# Revision: 0
# Processed by: cddbd v1.5.1PL0 Copyright (c) Steve Scherf et al.
# Submitted via: CDex 1.51
#
DISCID=6d106209
DTITLE=David Liebman and Richard Beirach - Forgotten Fantasies
DYEAR=1975
DGENRE=Jazz
TTITLE0=October 10th
TTITLE1=Repeat Performance
TTITLE2=Eugene
TTITLE3=Forgotten Fantasies
TTITLE4=Troubled Peace
TTITLE5=Obsidian Mirrors
TTITLE6=Chant - Incantation - Part I
TTITLE7=Chant - Incantation - Part II
TTITLE8=Chant - Incantation - Part III
EXTD=YEAR: 1975
EXTT0=
EXTT1=
EXTT2=
EXTT3=
EXTT4=
EXTT5=
EXTT6=
EXTT7=
EXTT8=
PLAYORDER=
